<svg xmlns="http://www.w3.org/2000/svg" width="100%" height="100%" viewBox="0 0 13 9" version="1.1"><path fill-rule="evenodd" fill-opacity="0.6471" fill="#000" d="M5,7 L6,7 L6,8 L5,8 L5,7 Z M10,3 L10,4 L8,4 L8,3 L10,3 Z M3,6 L3,5 L5,5 L5,6 L3,6 Z M2,7 L3,7 L3,8 L2,8 L2,7 Z M7,7 L10,7 L10,8 L7,8 L7,7 Z M10,6 L11,6 L11,7 L10,7 L10,6 Z" /><path fill-rule="evenodd" fill="#fff" d="M5,7 L5,6 L5,5 L3,5 L3,6 L3,7 L2,7 L2,2 L3,2 L3,4 L5,4 L5,2 L6,2 L6,7 L5,7 Z M11,6 L10,6 L10,7 L7,7 L7,2 L10,2 L10,3 L11,3 L11,6 Z M10,4 L10,3 L8,3 L8,4 L8,6 L10,6 L10,4 Z" /></svg>