<svg xmlns="http://www.w3.org/2000/svg" width="2216" height="425" viewBox="0 0 2216 425" fill="none"><path d="M287.62 416.25C377.74 416.05 482.07 412.80 513.74 404.07C538.09 397.58 556.97 378.70 563.47 354.14C572.19 322.48 575.64 262.39 575.85 214.90C575.64 167.81 572.19 107.93 563.47 76.67C556.97 51.90 538.3 33.23 513.74 26.73C482.07 18.01 377.74 14.56 287.62 14.35C197.70 14.56 93.57 18.01 62.11 26.73C37.75 33.23 18.87 52.11 11.97 76.67C3.45 107.93 .20 167.81 0 214.90C0.20 262.39 3.45 322.48 11.97 354.14C18.87 378.50 37.95 397.58 62.11 404.07C93.57 412.80 197.70 416.05 287.62 416.25ZM232.00 131.67L376.32 214.90L232.00 298.73V131.67Z" fill="white" /><path d="M731.55 425V0H862.61V71.87H814.95V175H856.33V246.25H814.95V425H731.55ZM878.73 425V0H961.51V425H878.73ZM980.61 425V0H1111.67V71.87H1064.02V175H1105.4V246.25H1064.02V425H980.61ZM1155.41 425V71.87H1124.67V0H1269.53V71.87H1238.79V425H1155.41ZM1330.56 425V277.50L1281.03 0H1362.56L1372.59 173.74H1373.84L1385.75 0H1465.39L1414.6 276.24V424.98H1330.56V425ZM1557.15 425V0H1643.68C1700.13 0 1733.36 34.37 1733.36 89.37V336.24C1733.36 391.24 1699.5 425 1643.68 425H1557.15ZM1751.49 425V0H1879.42V71.87H1834.91V175H1874.4V246.25H1834.89V353.74H1879.41V425H1751.49ZM1896.24 425V0H2024.17V71.87H1979.65V175H2019.14V246.25H1979.65V353.74H2024.17V425H1896.24ZM2040.98 425V0H2130.65C2197.13 0 2215.94 29.99 2215.94 89.99V169.37C2215.94 231.24 2192.11 261.87 2127.53 261.87H2124.39V425H2040.98Z" fill="white" /></svg>