<svg xmlns="http://www.w3.org/2000/svg" viewBox="0 0 32 32" focusable="false" style="pointer-events: none; display: block; width: 100%; height: 100%;"><path fill-rule="evenodd" clip-rule="evenodd" d="M6.15895 20.0023C5.32221 20.0023 4.54031 19.586 4.07317 18.8918C3.30492 17.7502 3.31241 16.255 4.09205 15.1211L4.82045 14.0617L4.14538 12.4963C3.74297 11.5632 3.84031 10.4898 4.40399 9.64424L5.50013 8.00004L5.50013 6.00231C5.50013 4.89774 6.39557 4.00231 7.50014 4.00232L20.0001 4.00239C21.1047 4.0024 22.0001 4.89783 22.0001 6.0024L22.0001 19.1736C22.0001 20.0073 21.7396 20.8201 21.2551 21.4985L16.1368 28.6641C15.9224 28.9643 15.5279 29.0747 15.1888 28.9294C13.4238 28.1729 12.4653 26.2504 12.9234 24.3856L14.0001 20.0024L6.15895 20.0023ZM27 18.5001C28.1046 18.5001 29 17.6046 29 16.5001L29 6.00006C29 4.89549 28.1046 4.00006 27 4.00006L24 4.00006L24 18.5001L27 18.5001Z"/></svg>