<svg xmlns="http://www.w3.org/2000/svg" viewBox="0 0 32 32" focusable="false" style="pointer-events: none; display: block; width: 100%; height: 100%;"><path fill-rule="evenodd" clip-rule="evenodd" d="M5.5 3C4.11929 3 3 4.11929 3 5.5V21.5C3 22.8807 4.11929 24 5.5 24H22.5L26.7474 28.5741C27.5513 29.4399 29 28.871 29 27.6895V24V5.5C29 4.11929 27.8807 3 26.5 3H5.5ZM8 10.5C8 9.67157 8.67157 9 9.5 9H22.5C23.3284 9 24 9.67157 24 10.5C24 11.3284 23.3284 12 22.5 12H9.5C8.67157 12 8 11.3284 8 10.5ZM8 16.5C8 15.6716 8.67157 15 9.5 15H18.5C19.3284 15 20 15.6716 20 16.5C20 17.3284 19.3284 18 18.5 18H9.5C8.67157 18 8 17.3284 8 16.5Z"/></svg>